<svg xmlns="http://www.w3.org/2000/svg" width="800" viewBox="0 0 600 225" preserveAspectRatio="xMidYMid meet" version="1.0">
  <defs>
    <clipPath id="11c710107a">
      <path d="M 70 46 L 195 46 L 195 179 L 70 179 Z"/>
    </clipPath>
    <clipPath id="711d921036">
      <path d="M 46 86.109375 L 142.375 22.449219 L 219.261719 138.847656 L 122.886719 202.507812 Z"/>
    </clipPath>
    <clipPath id="f70eef9c14">
      <path d="M 44.183594 87.3125 L 142.382812 22.449219 L 219.261719 138.832031 L 121.058594 203.695312 Z"/>
    </clipPath>
    <clipPath id="2cddb51185">
      <path d="M 94.152344 54.308594 C 67.558594 71.871094 63.210938 112.164062 84.441406 144.300781 C 105.667969 176.441406 144.433594 188.257812 171.027344 170.691406 C 197.617188 153.128906 201.964844 112.835938 180.738281 80.695312 C 159.507812 48.558594 120.742188 36.742188 94.152344 54.308594 Z"/>
    </clipPath>
  </defs>
  
  <g fill="green" clip-path="url(#11c710107a)">
    <g clip-path="url(#711d921036)">
      <g clip-path="url(#f70eef9c14)">
        <g clip-path="url(#2cddb51185)">
          <path d="M 93.171875 132.734375 C 93.96875 134.132812 94.8125 135.507812 95.707031 136.863281 C 102.105469 146.550781 110.105469 153.957031 119.703125 159.074219 C 128.699219 163.871094 137.644531 165.910156 146.542969 165.199219 L 148.699219 192.113281 C 134.546875 193.246094 120.648438 190.175781 107 182.898438 C 93.371094 175.628906 82.09375 165.246094 73.175781 151.742188 C 71.949219 149.882812 70.785156 147.992188 69.691406 146.0625 Z M 156.199219 163.136719 C 158.808594 162.191406 161.269531 160.957031 163.585938 159.425781 C 170.445312 154.898438 175.304688 148.414062 178.160156 139.984375 C 181.117188 131.253906 181.53125 121.816406 179.40625 111.671875 L 205.832031 106.136719 C 208.964844 121.089844 208.265625 135.261719 203.730469 148.644531 C 198.898438 162.921875 190.476562 174.023438 178.46875 181.957031 C 174.363281 184.667969 169.996094 186.859375 165.367188 188.53125 Z M 176.175781 100.957031 C 174.410156 96.5 172.175781 92.226562 169.472656 88.136719 C 164.140625 80.066406 157.617188 73.53125 149.902344 68.535156 C 142.628906 63.828125 135.105469 60.988281 127.332031 60.015625 L 130.679688 33.222656 C 142.546875 34.707031 153.847656 38.921875 164.578125 45.871094 C 175.453125 52.914062 184.59375 62.042969 192 73.253906 C 195.730469 78.902344 198.820312 84.820312 201.273438 91.007812 Z M 117.140625 59.949219 C 111.421875 60.628906 106.238281 62.5 101.589844 65.570312 C 93.648438 70.816406 88.425781 78.5625 85.914062 88.808594 C 83.28125 99.570312 84.109375 110.789062 88.398438 122.457031 L 63.054688 131.769531 C 56.871094 114.945312 55.75 98.488281 59.691406 82.390625 C 63.875 65.292969 72.882812 52.175781 86.710938 43.042969 C 94.917969 37.621094 104.003906 34.320312 113.960938 33.136719 Z"/>
        </g>
      </g>
    </g>
  </g>
  <g fill="green">
    <path transform="translate(196.2817, 155.7357)" d="M 10.53125 0 L 10.53125 -80.984375 L 43.046875 -80.984375 C 51.429688 -80.984375 57.753906 -79.050781 62.015625 -75.1875 C 66.285156 -71.332031 68.421875 -66.007812 68.421875 -59.21875 C 68.421875 -54.3125 67.171875 -50.285156 64.671875 -47.140625 C 62.179688 -44.003906 58.460938 -41.601562 53.515625 -39.9375 L 53.515625 -38.78125 C 56.054688 -37.664062 58.113281 -36.019531 59.6875 -33.84375 C 61.257812 -31.664062 62.75 -28.4375 64.15625 -24.15625 L 72.234375 0 L 55.78125 0 L 47.859375 -24.203125 C 47.046875 -26.640625 46.128906 -28.53125 45.109375 -29.875 C 44.097656 -31.226562 42.804688 -32.207031 41.234375 -32.8125 C 39.671875 -33.425781 37.632812 -33.734375 35.125 -33.734375 L 26.53125 -33.734375 L 26.53125 0 Z M 41.109375 -46.421875 C 48.859375 -46.421875 52.734375 -50.039062 52.734375 -57.28125 C 52.734375 -64.625 48.859375 -68.296875 41.109375 -68.296875 L 26.53125 -68.296875 L 26.53125 -46.421875 Z"/>
    <path transform="translate(272.0068, 155.7357)" d="M 26.53125 0 L 10.53125 0 L 10.53125 -80.984375 L 26.53125 -80.984375 Z"/>
    <path transform="translate(309.1216, 155.7357)" d="M 26.03125 0 L 10.53125 0 L 10.53125 -80.984375 L 28.859375 -80.984375 L 61.375 -28.8125 L 62.8125 -29.03125 L 62.8125 -80.984375 L 78.21875 -80.984375 L 78.21875 0 L 61.828125 0 L 27.421875 -55.734375 L 26.03125 -55.515625 Z"/>
    <path transform="translate(397.9200, 155.7357)" d="M 77.71875 0 L 60.875 0 L 54.78125 -18.671875 L 23.765625 -18.671875 L 17.671875 0 L 1.21875 0 L 29.1875 -80.984375 L 49.75 -80.984375 Z M 38.5 -64.09375 L 28.09375 -32.125 L 50.359375 -32.125 L 39.890625 -64.09375 Z"/>
    <path transform="translate(476.8580, 155.7357)" d="M 26.53125 -80.984375 L 26.53125 -13.40625 L 62.9375 -13.40625 L 62.9375 0 L 10.53125 0 L 10.53125 -80.984375 Z"/>
  </g>
</svg>
